<svg width="53" height="41" viewBox="0 0 53 41" fill="none" xmlns="http://www.w3.org/2000/svg">
<g clip-path="url(#clip0_18_207)">
<path d="M33.3198 33.5247L34.4889 40.0484" stroke="white" stroke-width="1.92727" stroke-linecap="round"/>
<path d="M42.2831 31.3502L47.739 37.149" stroke="white" stroke-width="1.92727" stroke-linecap="round"/>
<path d="M23.5772 0.906067V9.24195" stroke="white" stroke-width="1.92727" stroke-linecap="round"/>
<path d="M34.0993 1.99335L32.9302 9.24194" stroke="white" stroke-width="1.92727" stroke-linecap="round"/>
<path d="M44.2316 5.61761L40.7242 11.0541" stroke="white" stroke-width="2.40909" stroke-linecap="round"/>
<path d="M47.739 15.0409L52.0257 11.0541" stroke="white" stroke-width="1.92727" stroke-linecap="round"/>
<path d="M6.43014 30.9877L2.14337 38.5988" stroke="white" stroke-width="1.92727" stroke-linecap="round"/>
<path d="M15.0037 33.5247L13.8345 40.0484" stroke="white" stroke-width="1.92727" stroke-linecap="round"/>
<path d="M25.136 34.612L24.7463 40.0484" stroke="white" stroke-width="1.92727" stroke-linecap="round"/>
<path d="M3.3125 22.2894C6.05771 19.3657 8.25174 17.4786 9.89459 16.6281C15.3497 13.804 21.3014 13.3615 25.136 13.3615C28.5683 13.3615 35.799 14.3655 40.5296 16.6281C42.4909 17.5662 44.6342 19.4533 46.9596 22.2894" stroke="white" stroke-width="2.40909" stroke-linecap="round"/>
<path d="M5.26099 25.1889C7.52754 26.9754 9.2445 28.111 10.4119 28.5956C16.2965 31.0383 21.3644 31.3234 24.7463 31.2291C28.0479 31.137 34.2167 30.3113 39.9037 27.668C41.1515 27.088 42.5941 25.8992 44.2316 24.1016" stroke="white" stroke-width="2.40909" stroke-linecap="round"/>
<path d="M24.9412 30.2629C29.7838 30.2629 33.7096 26.693 33.7096 22.2894C33.7096 17.8858 29.7838 14.316 24.9412 14.316C20.0985 14.316 16.1728 17.8858 16.1728 22.2894C16.1728 26.693 20.0985 30.2629 24.9412 30.2629Z" stroke="white" stroke-width="2.40909"/>
<path d="M24.9412 27.5446C27.7391 27.5446 30.0074 25.3541 30.0074 22.6518C30.0074 19.9496 27.7391 17.759 24.9412 17.759C22.1432 17.759 19.875 19.9496 19.875 22.6518C19.875 25.3541 22.1432 27.5446 24.9412 27.5446Z" fill="#FE9A21"/>
<path d="M0.974243 9.24194L5.65071 15.0408" stroke="white" stroke-width="1.92727" stroke-linecap="round"/>
<path d="M12.6654 4.16791L15.3933 12.1414" stroke="white" stroke-width="1.92727" stroke-linecap="round"/>
</g>
<defs>
<clipPath id="clip0_18_207">
<rect width="53" height="40.9545" fill="white"/>
</clipPath>
</defs>
</svg>
